# xmcd
#
# Track frame offsets: 
#        150
#        19105
#        36027
#        50485
#        64620
#        85135
#        103212
#        125632
#        148935
#        162647
#        184262
#        212427
#
# Disc length: 3095 seconds
#
# Revision: 0
# Processed by: cddbd v1.5.2PL0 Copyright (c) Steve Scherf et al.
# Submitted via: ExactAudioCopy v0.99pb4
#
DISCID=ae0c150c
DTITLE=Jimbo-Delta - Hypnotized
DYEAR=2001
DGENRE=Delta Blues
TTITLE0=Goin Down That Road
TTITLE1=Hypnotized
TTITLE2=Fathers Song
TTITLE3=Radio Road
TTITLE4=I Want You
TTITLE5=The Levee
TTITLE6=How Long
TTITLE7=Broken Promise
TTITLE8=Blowout
TTITLE9=Dark Cloud
TTITLE10=Theres No Wrong Way To Go
TTITLE11=Dead Soldiers
EXTD=
EXTT0=
EXTT1=
EXTT2=
EXTT3=
EXTT4=
EXTT5=
EXTT6=
EXTT7=
EXTT8=
EXTT9=
EXTT10=
EXTT11=
PLAYORDER=
